<?xml version="1.0" encoding="UTF-8"?>
<svg width="1400px" height="1282px" viewBox="0 0 1400 1282" version="1.1" xmlns="http://www.w3.org/2000/svg" xmlns:xlink="http://www.w3.org/1999/xlink">
    <title>Feature</title>
    <g id="Feature" stroke="none" stroke-width="1" fill="none" fill-rule="evenodd">
        <g id="feature_1" transform="translate(137.000000, 172.000000)">
            <rect id="Rectangle" stroke="#585555" stroke-width="0.8" fill="#1C1B1B" transform="translate(957.665625, 360.767187) rotate(-90.000000) translate(-957.665625, -360.767187) " x="820.065625" y="223.167187" width="275.2" height="275.2" rx="3"></rect>
            <rect id="Rectangle" fill="#1C1B1B" transform="translate(138.648438, 461.804687) rotate(-270.000000) translate(-138.648438, -461.804687) " x="0.6484375" y="323.804687" width="276" height="276" rx="3"></rect>
            <rect id="Rectangle" stroke="#585555" stroke-width="0.8" fill="#1C1B1B" x="328.4" y="0.4" width="275.2" height="275.2" rx="3"></rect>
            <g id="Group-4" transform="translate(466.500000, 138.500000) rotate(-180.000000) translate(-466.500000, -138.500000) translate(404.000000, 76.000000)">
                <path d="M0,61.56 C41.3983854,61.56 82.8,61.56 124.2,61.56 L124.2,46.44 C82.8,46.44 41.3983854,46.44 0,46.44 L0,61.56" id="Fill-4" fill="#585555"></path>
                <path d="M0,92.88 C41.3983854,92.88 82.8,92.88 124.2,92.88 L124.2,77.76 C82.8,77.76 41.3983854,77.76 0,77.76 L0,92.88" id="Fill-5" fill="#00CC88"></path>
                <path d="M0,124.2 L124.2,124.2 L124.2,109.08 C82.8,109.08 41.3983854,109.08 0,109.08 L0,124.2" id="Fill-6" fill="#585555"></path>
                <path d="M0,31.32 C41.3983854,31.32 82.8,31.32 124.2,31.32 L124.2,0 L0,0 L0,31.32" id="Fill-7" fill="#00CC88"></path>
            </g>
            <g id="Group-6" transform="translate(957.500000, 360.500000) rotate(-90.000000) translate(-957.500000, -360.500000) translate(896.000000, 299.000000)">
                <polygon id="Fill-4" fill="#0099FF" points="92 123 123 123 123 92 92 92"></polygon>
                <polyline id="Fill-5" fill="#585555" points="61 123 61 92.499207 30.499207 92.499207 30.499207 62 0 62 0 123 61 123"></polyline>
                <polygon id="Fill-6" fill="#0099FF" points="0 31 31 31 31 0 0 0"></polygon>
                <polygon id="Fill-7" fill="#585555" points="62 61 123 61 123 0 62 0"></polygon>
            </g>
            <g id="Group" transform="translate(74.000000, 400.000000)">
                <polyline id="Fill-4" fill="#FF3366" transform="translate(90.000000, 91.000000) rotate(-270.000000) translate(-90.000000, -91.000000) " points="59 60 59 91 90 91 90 122 121 122 121 60 59 60"></polyline>
                <polyline id="Fill-5" fill="#585555" transform="translate(61.500000, 61.500000) rotate(-270.000000) translate(-61.500000, -61.500000) " points="61.4992005 30.7503998 30.7488007 30.7503998 30.7488007 0 0 0 0 123 123 123 123 92.2496002 92.2496002 92.2496002 92.2496002 61.5007995 61.4992005 61.5007995 61.4992005 30.7503998"></polyline>
            </g>
            <g id="Group-2" transform="translate(135.000000, 107.000000)" fill="#FFFFFF">
                <path d="M428.1648,856.9232 C191.784142,856.9232 0.1648,665.304894 0.1648,428.920886 C0.1648,192.546134 191.784142,0.9232 428.1648,0.9232 C664.54083,0.9232 856.1648,192.546134 856.1648,428.920886 C856.1648,665.304894 664.54083,856.9232 428.1648,856.9232 L428.1648,856.9232 Z M428.1648,3.23715129 C310.610811,3.23715129 204.196244,50.8814083 127.159761,127.917475 C50.1232784,204.953541 2.47413587,311.367533 2.47413587,428.920886 C2.47413587,546.478867 50.1232784,652.892859 127.159761,729.928925 C204.196244,806.964992 310.610811,854.609249 428.1648,854.609249 C545.718789,854.609249 652.133356,806.964992 729.169839,729.928925 C806.206322,652.892859 853.850836,546.478867 853.850836,428.920886 C853.850836,311.367533 806.206322,204.953541 729.169839,127.917475 C652.133356,50.8814083 545.718789,3.23715129 428.1648,3.23715129 Z" id="Shape" opacity="0.5"></path>
                <path d="M428.1648,826.9232 C208.351125,826.9232 30.1648,648.728665 30.1648,428.920889 C30.1648,209.113113 208.351125,30.9232 428.1648,30.9232 C647.973853,30.9232 826.1648,209.113113 826.1648,428.920889 C826.1648,648.728665 647.973853,826.9232 428.1648,826.9232 L428.1648,826.9232 Z M428.1648,34.288501 C319.18019,34.288501 220.531921,78.4534535 149.111314,149.873646 C77.6953295,221.293838 33.5254978,319.941534 33.5254978,428.920889 C33.5254978,537.904866 77.6953295,636.552562 149.111314,707.972754 C220.531921,779.392947 319.18019,823.557899 428.1648,823.557899 C537.144788,823.557899 635.793057,779.392947 707.218286,707.972754 C778.63427,636.552562 822.804102,537.904866 822.804102,428.920889 C822.804102,319.941534 778.63427,221.293838 707.218286,149.873646 C635.793057,78.4534535 537.144788,34.288501 428.1648,34.288501 L428.1648,34.288501 Z" id="Shape" opacity="0.6"></path>
                <path d="M429.1648,796.9232 C225.37044,796.9232 60.1648,631.716523 60.1648,427.920885 C60.1648,224.125247 225.37044,58.9232 429.1648,58.9232 C632.954531,58.9232 798.1648,224.125247 798.1648,427.920885 C798.1648,631.716523 632.954531,796.9232 429.1648,796.9232 L429.1648,796.9232 Z M429.1648,63.3394511 C328.480461,63.3394511 237.350719,104.145796 171.366601,170.125699 C105.387113,236.105602 64.5856526,327.235915 64.5856526,427.920885 C64.5856526,528.610485 105.387113,619.736169 171.366601,685.720701 C237.350719,751.700604 328.480461,792.506949 429.1648,792.506949 C529.849139,792.506949 620.978881,751.700604 686.958369,685.720701 C752.937858,619.736169 793.743947,528.610485 793.743947,427.920885 C793.743947,327.235915 752.937858,236.105602 686.958369,170.125699 C620.978881,104.145796 529.849139,63.3394511 429.1648,63.3394511 Z" id="Shape" opacity="0.7"></path>
                <path d="M429.167112,766.9232 C241.935903,766.9232 90.1648,615.144921 90.1648,427.920888 C90.1648,240.696856 241.935903,88.9232 429.167112,88.9232 C616.393697,88.9232 768.1648,240.696856 768.1648,427.920888 C768.1648,615.144921 616.393697,766.9232 429.167112,766.9232 L429.167112,766.9232 Z M429.167112,94.3831497 C337.054054,94.3831497 253.683508,131.710528 193.31811,192.075103 C132.952711,252.444301 95.6248241,335.809087 95.6248241,427.920888 C95.6248241,520.03269 132.952711,603.402099 193.31811,663.766674 C253.683508,724.131249 337.054054,761.458627 429.167112,761.458627 C521.280169,761.458627 604.646092,724.131249 665.016114,663.766674 C725.376889,603.402099 762.704776,520.03269 762.704776,427.920888 C762.704776,335.809087 725.376889,252.444301 665.016114,192.075103 C604.646092,131.710528 521.280169,94.3831497 429.167112,94.3831497 L429.167112,94.3831497 Z" id="Shape" opacity="0.8"></path>
                <path d="M428.1648,738.9232 C256.954182,738.9232 118.1648,600.130224 118.1648,428.920885 C118.1648,257.711545 256.954182,118.9232 428.1648,118.9232 C599.375418,118.9232 738.155538,257.711545 738.1648,428.920885 C738.155538,600.130224 599.375418,738.9232 428.1648,738.9232 L428.1648,738.9232 Z M428.1648,125.448151 C344.353982,125.448151 268.503755,159.411238 213.576132,214.33382 C158.65314,269.261032 124.6898,345.110692 124.6898,428.920885 C124.6898,512.735708 158.65314,588.580737 213.576132,643.51258 C268.503755,698.435162 344.353982,732.398249 428.1648,732.398249 C511.980249,732.398249 587.825845,698.435162 642.753468,643.51258 C697.67646,588.580737 731.6398,512.735708 731.6398,428.920885 C731.6398,345.110692 697.67646,269.261032 642.753468,214.33382 C587.825845,159.411238 511.980249,125.448151 428.1648,125.448151 L428.1648,125.448151 Z" id="Shape" opacity="0.9"></path>
                <path d="M428.167112,708.9232 C273.522199,708.9232 148.1648,583.562212 148.1648,428.9232 C148.1648,274.284188 273.522199,148.9232 428.167112,148.9232 C582.807401,148.9232 708.1648,274.284188 708.1648,428.9232 C708.1648,583.562212 582.807401,708.9232 428.167112,708.9232 Z M428.167112,156.492392 C352.92308,156.492392 284.836779,186.977233 235.527963,236.285641 C186.219147,285.598674 155.734055,353.679789 155.734055,428.9232 C155.734055,504.166611 186.219147,572.25235 235.527963,621.565382 C284.836779,670.869167 352.92308,701.358632 428.167112,701.358632 C503.411144,701.358632 571.492821,670.869167 620.806261,621.565382 C670.115077,572.25235 700.600169,504.166611 700.600169,428.9232 C700.600169,353.679789 670.110453,285.598674 620.806261,236.285641 C571.492821,186.977233 503.411144,156.492392 428.167112,156.492392 Z" id="Shape"></path>
                <path d="M429.1648,678.9232 C290.542555,678.9232 178.1648,566.546482 178.1648,427.920883 C178.1648,289.299918 290.542555,176.9232 429.1648,176.9232 C567.791678,176.9232 680.1648,289.299918 680.1648,427.920883 C680.1648,566.546482 567.791678,678.9232 429.1648,678.9232 Z M429.1648,185.555444 C362.223744,185.555444 301.658468,212.68006 257.787912,256.545577 C213.92199,300.415728 186.797124,360.980445 186.797124,427.920883 C186.797124,494.861321 213.92199,555.426038 257.787912,599.300823 C301.658468,643.16634 362.223744,670.286322 429.1648,670.286322 C496.105856,670.286322 556.671132,643.16634 600.541688,599.300823 C644.40761,555.426038 671.527842,494.861321 671.527842,427.920883 C671.527842,360.980445 644.40761,300.415728 600.541688,256.545577 C556.671132,212.68006 496.105856,185.555444 429.1648,185.555444 Z" id="Shape"></path>
                <path d="M429.1648,648.9232 C307.109532,648.9232 208.169425,549.983093 208.1648,427.9232 C208.169425,305.867932 307.109532,206.927825 429.1648,206.9232 C551.220068,206.927825 650.160175,305.867932 650.1648,427.9232 C650.160175,549.983093 551.220068,648.9232 429.1648,648.9232 L429.1648,648.9232 Z M429.1648,216.593829 C370.789536,216.593829 317.99188,240.240852 279.730228,278.493253 C241.482452,316.75028 217.840054,369.552561 217.835429,427.9232 C217.840054,486.298464 241.482452,539.10537 279.730228,577.357772 C317.99188,615.610173 370.789536,639.252571 429.1648,639.257196 C487.535439,639.252571 540.33772,615.610173 578.594747,577.357772 C616.847148,539.10537 640.489546,486.298464 640.494171,427.9232 C640.489546,369.552561 616.847148,316.75028 578.594747,278.493253 C540.33772,240.240852 487.535439,216.593829 429.1648,216.593829 Z" id="Shape"></path>
                <path d="M428.1648,620.9232 C322.121659,620.918562 236.1648,534.96378 236.1648,428.9232 C236.1648,322.887258 322.121659,236.927838 428.1648,236.9232 C534.207941,236.927838 620.160162,322.887258 620.1648,428.9232 C620.160162,534.96378 534.207941,620.918562 428.1648,620.9232 Z M428.1648,247.677983 C378.095185,247.677983 332.81641,267.953925 299.999385,300.760881 C267.191636,333.581751 246.915205,378.859432 246.915205,428.9232 C246.915205,478.991606 267.191636,524.269287 299.999385,557.085519 C332.81641,589.892475 378.095185,610.168417 428.1648,610.173055 C478.234415,610.168417 523.51319,589.892475 556.325577,557.085519 C589.137964,524.269287 609.414395,478.991606 609.414395,428.9232 C609.414395,378.859432 589.137964,333.581751 556.325577,300.760881 C523.51319,267.953925 478.234415,247.677983 428.1648,247.677983 L428.1648,247.677983 Z" id="Shape"></path>
                <path d="M428.1648,590.9232 C338.693274,590.918573 266.169427,518.395761 266.1648,428.920887 C266.169427,339.450639 338.693274,266.927827 428.1648,266.9232 C517.636326,266.927827 590.160173,339.450639 590.1648,428.920887 C590.160173,518.395761 517.636326,590.918573 428.1648,590.9232 Z M428.1648,278.698036 C386.663115,278.702663 349.145036,295.502046 321.939919,322.697522 C294.748681,349.902252 277.944431,387.419794 277.939804,428.920887 C277.944431,470.426606 294.748681,507.944148 321.939919,535.144251 C349.145036,562.339727 386.663115,579.143737 428.1648,579.143737 C469.666485,579.143737 507.184564,562.339727 534.389681,535.144251 C561.580919,507.944148 578.385169,470.426606 578.385169,428.920887 C578.385169,387.419794 561.580919,349.902252 534.389681,322.697522 C507.184564,295.502046 469.666485,278.702663 428.1648,278.698036 Z" id="Shape"></path>
                <path d="M428.1648,560.9232 C355.260263,560.918589 296.169411,501.827737 296.1648,428.9232 C296.169411,356.018663 355.260263,296.927811 428.1648,296.9232 C501.069337,296.927811 560.160189,356.018663 560.1648,428.9232 C560.160189,501.827737 501.069337,560.918589 428.1648,560.9232 Z M428.1648,309.708697 C395.221281,309.713308 365.459152,323.042869 343.8672,344.6256 C322.284469,366.222163 308.954908,395.984292 308.950297,428.9232 C308.954908,461.866719 322.284469,491.628848 343.8672,513.2208 C365.459152,534.812753 395.221281,548.137703 428.1648,548.142313 C461.103708,548.137703 490.865837,534.812753 512.4624,513.2208 C534.045131,491.628848 547.374692,461.862108 547.379303,428.9232 C547.374692,395.984292 534.045131,366.222163 512.4624,344.6256 C490.870448,323.042869 461.103708,309.713308 428.1648,309.708697 L428.1648,309.708697 Z" id="Shape"></path>
                <path d="M429.162485,530.9232 C372.275979,530.918569 326.169431,484.812021 326.1648,427.920885 C326.169431,371.034379 372.275979,324.927831 429.162485,324.9232 C486.048991,324.927831 532.160169,371.034379 532.1648,427.920885 C532.160169,484.812021 486.048991,530.918569 429.162485,530.9232 L429.162485,530.9232 Z M429.162485,338.814899 C404.532503,338.814899 382.301154,348.775247 366.15437,364.91277 C350.016847,381.059554 340.056499,403.290903 340.056499,427.920885 C340.056499,452.550867 350.016847,474.786846 366.15437,490.93363 C382.301154,507.066523 404.532503,517.026871 429.162485,517.031501 C453.787836,517.026871 476.023815,507.066523 492.170599,490.93363 C508.308123,474.786846 518.268471,452.550867 518.273101,427.920885 C518.268471,403.290903 508.308123,381.059554 492.170599,364.91277 C476.023815,348.775247 453.787836,338.814899 429.162485,338.814899 L429.162485,338.814899 Z" id="Shape"></path>
            </g>
        </g>
        <g id="Phone" transform="translate(530.000000, 505.000000)">
            <rect id="Rectangle" stroke="#585555" stroke-width="3" fill="#1C1B1B" x="1.5" y="1.5" width="336.456" height="573" rx="5"></rect>
            <rect id="Rectangle" stroke="#1C1B1B" fill="#585555" x="44.8904" y="55.22" width="249.6752" height="404" rx="5"></rect>
            <g id="Group-3" transform="translate(170.000000, 257.000000) rotate(-315.000000) translate(-170.000000, -257.000000) translate(90.000000, 177.000000)" fill="#1C1B1B">
                <polyline id="Fill-313" points="40 0 0 40 0 0 40 0"></polyline>
                <polyline id="Fill-314" points="80 0 40 40 40 0 80 0"></polyline>
                <polyline id="Fill-315" points="120 0 80 40 80 0 120 0"></polyline>
                <polyline id="Fill-316" points="160 0 120 40 120 0 160 0"></polyline>
                <polyline id="Fill-317" points="40 40 0 80 0 40 40 40"></polyline>
                <polyline id="Fill-318" points="80 40 40 80 40 40 80 40"></polyline>
                <polyline id="Fill-319" points="120 40 80 80 80 40 120 40"></polyline>
                <polyline id="Fill-320" points="160 40 120 80 120 40 160 40"></polyline>
                <polyline id="Fill-321" points="40 80 0 120 0 80 40 80"></polyline>
                <polyline id="Fill-322" points="80 80 40 120 40 80 80 80"></polyline>
                <polyline id="Fill-323" points="120 80 80 120 80 80 120 80"></polyline>
                <polyline id="Fill-324" points="160 80 120 120 120 80 160 80"></polyline>
                <polyline id="Fill-325" points="40 120 0 160 0 120 40 120"></polyline>
                <polyline id="Fill-326" points="80 120 40 160 40 120 80 120"></polyline>
                <polyline id="Fill-327" points="120 120 80 160 80 120 120 120"></polyline>
                <polyline id="Fill-328" points="160 120 120 160 120 120 160 120"></polyline>
            </g>
            <rect id="Rectangle" fill="#585555" fill-rule="nonzero" opacity="0.76" x="115.146667" y="509" width="108.8" height="5"></rect>
        </g>
    </g>
</svg>