<?xml version="1.0" encoding="UTF-8"?>
<svg width="96px" height="50px" viewBox="0 0 96 50" version="1.1" xmlns="http://www.w3.org/2000/svg" xmlns:xlink="http://www.w3.org/1999/xlink">
    <title>DIY</title>
    <g id="DIY" stroke="none" stroke-width="1" fill="none" fill-rule="evenodd">
        <path d="M19.8828125,42.546875 C25.1015625,42.546875 28.9609375,40.3984375 31.4609375,36.1015625 C33.3046875,32.9140625 34.2265625,29.0234375 34.2265625,24.4296875 C34.2265625,22.6171875 34.0078125,20.7109375 33.5703125,18.7109375 C33.1328125,16.7109375 32.3125,14.8515625 31.109375,13.1328125 C29.609375,11.0078125 27.6484375,9.546875 25.2265625,8.75 C23.8046875,8.28125 22.0234375,8.03125 19.8828125,8 L19.8828125,8 L5,8 L5,42.546875 L19.8828125,42.546875 Z M18.6640625,36.546875 L12.0078125,36.546875 L12.0078125,14 L18.6640625,14 C21.9453125,14 24.1367188,14.9414062 25.2382812,16.8242188 C26.3398438,18.7070312 26.890625,21.40625 26.890625,24.921875 C26.890625,27.46875 26.5234375,29.6640625 25.7890625,31.5078125 C24.4453125,34.8671875 22.0703125,36.546875 18.6640625,36.546875 L18.6640625,36.546875 Z M51.2734375,42.546875 L51.2734375,8 L44.1015625,8 L44.1015625,42.546875 L51.2734375,42.546875 Z M79.3359375,42.546875 L79.3359375,29.5625 L90.890625,8 L82.7109375,8 L75.84375,23.046875 L68.671875,8 L60.1640625,8 L72.1171875,29.5625 L72.1171875,42.546875 L79.3359375,42.546875 Z" fill="#1C1B1B" fill-rule="nonzero"></path>
    </g>
</svg>