<?xml version="1.0" encoding="UTF-8"?>
<svg width="98px" height="80px" viewBox="0 0 98 80" version="1.1" xmlns="http://www.w3.org/2000/svg" xmlns:xlink="http://www.w3.org/1999/xlink">
    <title>Artboard</title>
    <g id="Artboard" stroke="none" stroke-width="1" fill="none" fill-rule="evenodd">
        <g id="edit" transform="translate(0.000000, 5.000000)" fill="#000000" fill-rule="nonzero">
            <path d="M0.14,62 C0.14,65.68 3.14,68.68 6.82,68.68 L37.66,68.68 C39.02,68.68 40.12,67.58 40.12,66.22 C40.12,64.86 39.02,63.76 37.66,63.76 L6.82,63.76 C5.84,63.76 5.04,62.96 5.04,61.98 L5.04,20.94 L73.46,20.94 C74.82,20.94 75.92,19.84 75.92,18.48 C75.92,17.12 74.82,16.02 73.46,16.02 L5.04,16.02 L5.04,6.8 C5.04,5.82 5.84,5.02 6.82,5.02 L77.94,5.02 C78.92,5.02 79.72,5.82 79.72,6.8 L79.72,10.52 C79.72,11.88 80.82,12.98 82.18,12.98 C83.54,12.98 84.64,11.88 84.64,10.52 L84.64,6.8 C84.64,3.12 81.64,0.12 77.96,0.12 L6.82,0.12 C3.14,0.12 0.14,3.12 0.14,6.8 L0.14,62 Z" id="Path"></path>
            <path d="M8.82,8.8 C8.36,9.26 8.1,9.88 8.1,10.54 C8.1,11.18 8.36,11.82 8.82,12.28 C9.28,12.74 9.9,13 10.54,13 C11.18,13 11.82,12.74 12.28,12.28 C12.74,11.82 13,11.2 13,10.54 C13,9.9 12.74,9.26 12.28,8.8 C11.36,7.88 9.72,7.88 8.82,8.8 Z" id="Path"></path>
            <path d="M16.76,8.8 C16.3,9.26 16.04,9.88 16.04,10.54 C16.04,11.18 16.3,11.82 16.76,12.28 C17.22,12.74 17.84,13 18.48,13 C19.12,13 19.76,12.74 20.22,12.28 C20.68,11.82 20.94,11.2 20.94,10.54 C20.94,9.9 20.68,9.26 20.22,8.8 C19.34,7.88 17.68,7.88 16.76,8.8 Z" id="Path"></path>
            <path d="M24.74,8.8 C24.28,9.26 24.02,9.88 24.02,10.54 C24.02,11.18 24.28,11.82 24.74,12.28 C25.2,12.74 25.82,13 26.46,13 C27.1,13 27.74,12.74 28.2,12.28 C28.66,11.82 28.92,11.18 28.92,10.54 C28.92,9.9 28.66,9.26 28.2,8.8 C27.28,7.88 25.64,7.88 24.74,8.8 Z" id="Path"></path>
            <path d="M58.54,41.4 L52.5,47.44 C50.82,49.12 49.14,50.8 47.46,52.5 C46.9,53.08 46.48,53.84 46.32,54.6 C45.72,57.4 45.12,60.18 44.54,62.98 L44.22,64.52 C44,65.58 44.24,66.64 44.9,67.44 C45.54,68.24 46.5,68.68 47.54,68.68 C47.8,68.68 48.06,68.66 48.3,68.6 L50.4,68.16 C52.98,67.62 55.56,67.06 58.14,66.54 C59,66.36 59.76,65.96 60.38,65.32 C67.96,57.72 88.96,36.74 96.56,29.16 C97.34,28.4 97.78,27.44 97.88,26.34 C97.9,26.06 97.88,25.78 97.82,25.52 C97.78,25.34 97.74,25.16 97.7,24.98 C97.6,24.46 97.46,23.8 97.16,23.14 C95.6,19.58 93.02,17.04 89.48,15.62 C88.68,15.3 87.88,15.2 87.22,15.12 L87.06,15.1 C86.88,15.08 86.72,15.06 86.56,15.06 C85.82,15.06 84.7,15.28 83.66,16.34 C79.3,20.66 66.28,33.68 58.54,41.4 Z M57,61.76 C54.48,62.28 51.98,62.82 49.46,63.34 C49.98,60.84 50.52,58.32 51.06,55.82 C52.68,54.18 54.32,52.54 55.96,50.9 L62,44.86 C67.32,39.54 75.1,31.76 80.88,25.98 L86.82,31.92 C77.36,41.38 63.06,55.68 57,61.76 Z M86.88,19.98 C87.18,20.02 87.44,20.06 87.6,20.12 C89.94,21.06 91.6,22.68 92.64,25.08 C92.72,25.26 92.78,25.56 92.86,25.9 C92.12,26.64 91.26,27.5 90.3,28.46 L84.36,22.52 C85.34,21.52 86.2,20.66 86.88,19.98 Z" id="Shape"></path>
            <path d="M62.86,25.6 L12.58,25.6 C11.22,25.6 10.12,26.7 10.12,28.06 C10.12,29.42 11.22,30.52 12.58,30.52 L62.86,30.52 C64.22,30.52 65.32,29.42 65.32,28.06 C65.32,26.7 64.22,25.6 62.86,25.6 Z" id="Path"></path>
            <path d="M12.58,40.04 L50.92,40.04 C52.28,40.04 53.38,38.94 53.38,37.58 C53.38,36.22 52.28,35.12 50.92,35.12 L12.58,35.12 C11.22,35.12 10.12,36.22 10.12,37.58 C10.12,38.96 11.22,40.04 12.58,40.04 Z" id="Path"></path>
            <path d="M12.58,49.6 L42.66,49.6 C44.02,49.6 45.12,48.5 45.12,47.14 C45.12,45.78 44.02,44.68 42.66,44.68 L12.58,44.68 C11.22,44.68 10.12,45.78 10.12,47.14 C10.12,48.5 11.22,49.6 12.58,49.6 Z" id="Path"></path>
            <path d="M12.58,59.14 L38.08,59.14 C39.44,59.14 40.54,58.04 40.54,56.68 C40.54,55.32 39.44,54.22 38.08,54.22 L12.58,54.22 C11.22,54.22 10.12,55.32 10.12,56.68 C10.12,58.04 11.22,59.14 12.58,59.14 Z" id="Path"></path>
        </g>
    </g>
</svg>