<?xml version="1.0" encoding="UTF-8"?>
<svg width="82px" height="90px" viewBox="0 0 82 90" version="1.1" xmlns="http://www.w3.org/2000/svg" xmlns:xlink="http://www.w3.org/1999/xlink">
    <title>Artboard</title>
    <g id="Artboard" stroke="none" stroke-width="1" fill="none" fill-rule="evenodd">
        <g id="shield" transform="translate(3.000000, 6.000000)" fill="#000000" fill-rule="nonzero">
            <path d="M33.184,76.832 C34.272,76.832 35.152,75.952 35.152,74.864 C35.152,73.776 34.272,72.896 33.184,72.896 C17.12,72.896 4.064,59.84 4.064,43.776 L4.064,16.336 L33.184,4.192 L62.304,16.336 L62.304,27.776 C62.304,28.864 63.184,29.744 64.272,29.744 C65.36,29.744 66.24,28.864 66.24,27.776 L66.24,15.04 C66.24,14.256 65.76,13.536 65.04,13.232 L33.936,0.256 C33.456,0.048 32.912,0.048 32.432,0.256 L1.344,13.216 C0.608,13.52 0.144,14.24 0.144,15.024 L0.144,43.776 C0.144,62 14.96,76.832 33.184,76.832 Z" id="Path"></path>
            <path d="M54.736,43.28 C49.104,43.28 44.512,47.856 44.512,53.504 C44.512,59.152 49.088,63.728 54.736,63.728 C60.368,63.728 64.96,59.152 64.96,53.504 C64.96,47.856 60.368,43.28 54.736,43.28 Z M54.736,59.792 C51.264,59.792 48.432,56.96 48.432,53.488 C48.432,50.016 51.264,47.184 54.736,47.184 C58.208,47.184 61.04,50.016 61.04,53.488 C61.04,56.96 58.208,59.792 54.736,59.792 Z" id="Shape"></path>
            <path d="M64.032,36.688 C62.768,35.984 61.44,35.44 60.064,35.04 L60.064,33.36 C60.064,31.488 58.544,29.984 56.688,29.984 L52.8,29.984 C50.928,29.984 49.424,31.504 49.424,33.36 L49.424,35.04 C48.048,35.44 46.72,35.984 45.456,36.688 L44.272,35.504 C43.632,34.864 42.784,34.512 41.888,34.512 C40.992,34.512 40.128,34.864 39.504,35.504 L36.736,38.24 C36.096,38.88 35.744,39.728 35.744,40.624 C35.744,41.536 36.096,42.384 36.736,43.008 L37.92,44.192 C37.216,45.456 36.672,46.784 36.272,48.16 L34.592,48.16 C32.72,48.16 31.216,49.68 31.216,51.536 L31.216,55.408 C31.216,57.28 32.736,58.784 34.592,58.784 L36.272,58.784 C36.672,60.16 37.216,61.488 37.92,62.752 L36.736,63.936 C35.424,65.248 35.424,67.408 36.736,68.72 L39.472,71.456 C40.112,72.096 40.96,72.448 41.856,72.448 C42.752,72.448 43.616,72.096 44.24,71.456 L45.424,70.272 C46.688,70.976 48.016,71.52 49.392,71.92 L49.392,73.6 C49.392,75.472 50.912,76.976 52.768,76.976 L56.64,76.976 C58.512,76.976 60.016,75.456 60.016,73.6 L60.016,71.92 C61.392,71.52 62.72,70.976 63.984,70.272 L65.168,71.456 C65.808,72.096 66.656,72.448 67.552,72.448 C68.448,72.448 69.312,72.096 69.936,71.456 L72.672,68.72 C73.312,68.08 73.664,67.232 73.664,66.32 C73.664,65.424 73.312,64.56 72.672,63.936 L71.488,62.752 C72.192,61.488 72.736,60.16 73.136,58.784 L74.88,58.784 C76.752,58.784 78.256,57.264 78.256,55.408 L78.256,51.536 C78.256,49.664 76.736,48.16 74.88,48.16 L73.2,48.16 C72.8,46.784 72.256,45.456 71.552,44.192 L72.736,43.008 C73.376,42.368 73.728,41.52 73.728,40.608 C73.728,39.712 73.376,38.848 72.736,38.224 L70,35.488 C69.36,34.848 68.512,34.496 67.616,34.496 C66.72,34.496 65.856,34.848 65.216,35.488 L64.032,36.688 Z M67.616,38.656 L69.6,40.64 L67.696,42.544 C67.04,43.2 66.928,44.24 67.456,45.024 C68.576,46.704 69.344,48.56 69.744,50.544 C69.92,51.456 70.736,52.128 71.664,52.128 L74.352,52.128 L74.352,54.928 L71.664,54.928 C70.736,54.928 69.92,55.584 69.744,56.512 C69.36,58.496 68.592,60.352 67.456,62.032 C66.928,62.816 67.04,63.84 67.696,64.512 L69.6,66.416 L67.616,68.4 L65.712,66.496 C65.056,65.84 64.016,65.728 63.232,66.256 C61.552,67.376 59.696,68.144 57.712,68.544 C56.8,68.72 56.128,69.536 56.128,70.464 L56.128,73.152 L53.328,73.152 L53.328,70.464 C53.328,69.52 52.672,68.72 51.744,68.544 C49.76,68.16 47.904,67.392 46.224,66.256 C45.44,65.728 44.416,65.84 43.744,66.496 L41.84,68.4 L39.856,66.416 L41.76,64.512 C42.416,63.856 42.528,62.816 42,62.032 C40.88,60.352 40.112,58.496 39.712,56.512 C39.536,55.6 38.72,54.928 37.792,54.928 L35.104,54.928 L35.104,52.128 L37.792,52.128 C38.72,52.128 39.536,51.472 39.712,50.544 C40.096,48.56 40.864,46.704 42,45.024 C42.528,44.24 42.416,43.216 41.76,42.544 L39.888,40.64 L41.872,38.656 L43.776,40.56 C44.432,41.216 45.472,41.328 46.256,40.8 C47.936,39.68 49.792,38.912 51.776,38.512 C52.688,38.336 53.36,37.52 53.36,36.592 L53.36,33.904 L56.16,33.904 L56.16,36.592 C56.16,37.52 56.816,38.336 57.744,38.512 C59.728,38.912 61.584,39.68 63.264,40.8 C64.048,41.328 65.072,41.216 65.744,40.56 L67.616,38.656 Z" id="Shape"></path>
        </g>
    </g>
</svg>