<?xml version="1.0" encoding="UTF-8"?>
<svg width="86px" height="80px" viewBox="0 0 86 80" version="1.1" xmlns="http://www.w3.org/2000/svg" xmlns:xlink="http://www.w3.org/1999/xlink">
    <title>Artboard</title>
    <g id="Artboard" stroke="none" stroke-width="1" fill="none" fill-rule="evenodd">
        <g id="multimedia" transform="translate(1.000000, 1.000000)" fill="#000000" fill-rule="nonzero">
            <path d="M35.868,32.1216 C34.7256,32.1216 33.8016,33.0456 33.8016,34.188 C33.8016,35.3304 34.7256,36.2544 35.868,36.2544 L46.788,36.2544 C47.9304,36.2544 48.8544,35.3304 48.8544,34.188 C48.8544,33.0456 47.9304,32.1216 46.788,32.1216 L43.3944,32.1216 L43.3944,29.2152 L54.8856,29.2152 C57.5736,29.2152 59.7576,27.0312 59.7576,24.3432 L59.7576,4.872 C59.7576,2.184 57.5736,0 54.8856,0 L27.7704,0 C25.0824,0 22.8984,2.184 22.8984,4.872 L22.8984,24.36 C22.8984,27.048 25.0824,29.232 27.7704,29.232 L39.2616,29.232 L39.2616,32.1384 L35.868,32.1384 L35.868,32.1216 Z M27.0144,24.36 L27.0144,4.872 C27.0144,4.452 27.3504,4.116 27.7704,4.116 L54.8856,4.116 C55.3056,4.116 55.6416,4.452 55.6416,4.872 L55.6416,24.36 C55.6416,24.78 55.3056,25.116 54.8856,25.116 L27.7704,25.116 C27.3504,25.0992 27.0144,24.7632 27.0144,24.36 Z" id="Shape"></path>
            <path d="M26.04,74.8776 C26.04,73.7352 25.116,72.8112 23.9736,72.8112 L20.58,72.8112 L20.58,69.9048 L32.088,69.9048 C34.776,69.9048 36.96,67.7208 36.96,65.0328 L36.96,45.5616 C36.96,42.8736 34.776,40.6896 32.088,40.6896 L4.9728,40.6896 C2.2848,40.6896 0.1008,42.8736 0.1008,45.5616 L0.1008,65.0328 C0.1008,67.7208 2.2848,69.9048 4.9728,69.9048 L16.464,69.9048 L16.464,72.8112 L13.0704,72.8112 C11.928,72.8112 11.004,73.7352 11.004,74.8776 C11.004,76.02 11.928,76.944 13.0704,76.944 L23.9904,76.944 C25.116,76.9272 26.04,76.02 26.04,74.8776 Z M4.2168,65.0496 L4.2168,45.5616 C4.2168,45.1416 4.5528,44.8056 4.9728,44.8056 L32.088,44.8056 C32.508,44.8056 32.844,45.1416 32.844,45.5616 L32.844,65.0328 C32.844,65.4528 32.508,65.7888 32.088,65.7888 L4.9728,65.7888 C4.5528,65.7888 4.2168,65.4528 4.2168,65.0496 Z" id="Shape"></path>
            <path d="M77.6832,69.9048 C80.3712,69.9048 82.5552,67.7208 82.5552,65.0328 L82.5552,45.5616 C82.5552,42.8736 80.3712,40.6896 77.6832,40.6896 L50.568,40.6896 C47.88,40.6896 45.696,42.8736 45.696,45.5616 L45.696,65.0328 C45.696,67.7208 47.88,69.9048 50.568,69.9048 L62.0592,69.9048 L62.0592,72.8112 L58.6656,72.8112 C57.5232,72.8112 56.5992,73.7352 56.5992,74.8776 C56.5992,76.02 57.5232,76.944 58.6656,76.944 L69.5856,76.944 C70.728,76.944 71.652,76.02 71.652,74.8776 C71.652,73.7352 70.728,72.8112 69.5856,72.8112 L66.192,72.8112 L66.192,69.9048 L77.6832,69.9048 Z M49.812,65.0496 L49.812,45.5616 C49.812,45.1416 50.148,44.8056 50.568,44.8056 L77.6832,44.8056 C78.1032,44.8056 78.4392,45.1416 78.4392,45.5616 L78.4392,65.0328 C78.4392,65.4528 78.1032,65.7888 77.6832,65.7888 L50.568,65.7888 C50.148,65.7888 49.812,65.4528 49.812,65.0496 Z" id="Shape"></path>
            <path d="M6.7704,9.9456 C5.628,9.9456 4.704,10.8696 4.704,12.012 L4.704,34.188 C4.704,35.3304 5.628,36.2544 6.7704,36.2544 C7.9128,36.2544 8.8368,35.3304 8.8368,34.188 L8.8368,14.0616 L17.304,14.0616 C18.4464,14.0616 19.3704,13.1376 19.3704,11.9952 C19.3704,10.8528 18.4464,9.9288 17.304,9.9288 L6.7704,9.9288 L6.7704,9.9456 Z" id="Path"></path>
            <path d="M63.2856,12.012 C63.2856,13.1544 64.2096,14.0784 65.352,14.0784 L73.836,14.0784 L73.836,34.2048 C73.836,35.3472 74.76,36.2712 75.9024,36.2712 C77.0448,36.2712 77.9688,35.3472 77.9688,34.2048 L77.9688,12.0288 C77.9688,10.8864 77.0448,9.96217448 75.9024,9.96217448 L65.352,9.96217448 C64.2096,9.9456 63.2856,10.8696 63.2856,12.012 Z" id="Path"></path>
        </g>
    </g>
</svg>