<?xml version="1.0" encoding="UTF-8"?>
<svg width="98px" height="80px" viewBox="0 0 98 80" version="1.1" xmlns="http://www.w3.org/2000/svg" xmlns:xlink="http://www.w3.org/1999/xlink">
    <title>grid_1</title>
    <g id="Page-1" stroke="none" stroke-width="1" fill="none" fill-rule="evenodd">
        <g id="Artboard" fill="#000000" fill-rule="nonzero">
            <g id="grid_1">
                <path d="M0.06,7.5 L0.06,71.72 C0.06,75.78 3.36,79.1 7.44,79.1 L90.18,79.1 C94.24,79.1 97.54,75.8 97.54,71.72 L97.54,7.5 C97.54,3.44 94.24,0.12 90.18,0.12 L7.44,0.12 C3.38,0.12 0.06,3.42 0.06,7.5 Z M90.16,74.18 L7.44,74.18 C6.08,74.18 4.96,73.08 4.96,71.7 L4.96,23.54 L92.6202638,23.54 L92.6202638,71.72 C92.64,73.06 91.52,74.18 90.16,74.18 Z M92.64,7.5 L92.64,18.64 L4.96,18.64 L4.96,7.5 C4.96,6.14 6.06,5.02 7.44,5.02 L90.18,5.02 C91.52,5.02 92.64,6.14 92.64,7.5 Z" id="Shape"></path>
                <path d="M11.78,14.28 C12.42,14.28 13.06,14.02 13.52,13.56 C13.98,13.1 14.24,12.48 14.24,11.82 C14.24,11.18 13.98,10.54 13.52,10.08 C12.6,9.16 10.96,9.16 10.06,10.08 C9.6,10.54 9.34,11.16 9.34,11.82 C9.34,12.46 9.6,13.1 10.06,13.56 C10.5,14.02 11.12,14.28 11.78,14.28 Z" id="Path"></path>
                <path d="M21.04,14.28 C21.68,14.28 22.32,14.02 22.76,13.56 C23.22,13.1 23.48,12.48 23.48,11.82 C23.48,11.18 23.22,10.54 22.76,10.08 C21.84,9.16 20.22,9.16 19.3,10.08 C18.84,10.54 18.58,11.16 18.58,11.82 C18.58,12.46 18.84,13.1 19.3,13.56 C19.74,14.02 20.38,14.28 21.04,14.28 Z" id="Path"></path>
                <path d="M30.28,14.28 C30.92,14.28 31.56,14.02 32.02,13.56 C32.48,13.1 32.74,12.48 32.74,11.82 C32.74,11.18 32.48,10.54 32.02,10.08 C31.1,9.16 29.46,9.16 28.56,10.08 C28.1,10.54 27.84,11.16 27.84,11.82 C27.84,12.46 28.1,13.1 28.56,13.56 C29,14.02 29.64,14.28 30.28,14.28 Z" id="Path"></path>
                <path d="M65.12,34.86 C64.08,33.98 62.54,34.12 61.66,35.14 C60.78,36.18 60.92,37.72 61.94,38.6 L74.3,49.06 L61.94,59.56 C60.9,60.44 60.78,61.98 61.66,63.02 C62.14,63.6 62.84,63.88 63.52,63.88 C64.08,63.88 64.64,63.68 65.1,63.3 L79.68,50.94 C80.22,50.48 80.54,49.8 80.54,49.06 C80.54,48.34 80.22,47.66 79.68,47.2 L65.12,34.86 Z" id="Path"></path>
                <path d="M23.28,49.06 L35.62,38.6 C36.66,37.72 36.78,36.18 35.9,35.14 C35.02,34.1 33.48,33.98 32.44,34.86 L17.88,47.18 C17.34,47.64 17.02,48.32 17.02,49.04 C17.02,49.76 17.34,50.44 17.88,50.9 L32.44,63.26 C32.9,63.66 33.46,63.84 34.02,63.84 C34.72,63.84 35.4,63.54 35.88,62.98 C36.76,61.94 36.64,60.4 35.6,59.52 L23.28,49.06 Z" id="Path"></path>
                <path d="M55.82,31.38 C54.56,30.88 53.14,31.48 52.64,32.74 L40.3,63.6 C39.8,64.86 40.4,66.28 41.66,66.78 C41.96,66.9 42.26,66.96 42.56,66.96 C43.54,66.96 44.46,66.38 44.84,65.42 L57.18,34.56 C57.7,33.3 57.08,31.88 55.82,31.38 Z" id="Path"></path>
            </g>
        </g>
    </g>
</svg>