<?xml version="1.0" encoding="UTF-8"?>
<svg width="143px" height="92px" viewBox="0 0 143 92" version="1.1" xmlns="http://www.w3.org/2000/svg" xmlns:xlink="http://www.w3.org/1999/xlink">
    <title>DIY</title>
    <g id="DIY" stroke="none" stroke-width="1" fill="none" fill-rule="evenodd">
        <path d="M24.7855464,69.3976342 C31.0029377,69.3976342 36.4501567,68.100091 41.1272033,65.5050045 C45.8042499,62.9099181 49.4030552,59.3521383 51.9236193,54.8316652 C54.4441833,50.311192 55.7044653,45.2326357 55.7044653,39.5959964 C55.7044653,33.9035487 54.4441833,28.8249924 51.9236193,24.3603276 C49.4030552,19.8956627 45.8042499,16.4076433 41.1272033,13.8962693 C36.4501567,11.3848954 31.0029377,10.1292084 24.7855464,10.1292084 L24.7855464,10.1292084 L0,10.1292084 L0,69.3976342 L24.7855464,69.3976342 Z M23.1051704,52.822566 L18.6521739,52.822566 L18.6521739,26.3694268 L23.1051704,26.3694268 C27.3061105,26.3694268 30.6388562,27.5134971 33.1034078,29.8016379 C35.5679593,32.0897786 36.800235,35.3545648 36.800235,39.5959964 C36.800235,43.837428 35.5679593,47.1022141 33.1034078,49.3903549 C30.6388562,51.6784956 27.3061105,52.822566 23.1051704,52.822566 L23.1051704,52.822566 Z M71.8360752,18.4167425 C75.0287897,18.4167425 77.6053662,17.5517137 79.5658049,15.8216561 C81.5262436,14.0915984 82.506463,11.9150743 82.506463,9.29208371 C82.506463,6.6132848 81.5262436,4.39490446 79.5658049,2.63694268 C77.6053662,0.878980892 75.0287897,0 71.8360752,0 C68.5873482,0 65.9827654,0.878980892 64.0223267,2.63694268 C62.061888,4.39490446 61.0816686,6.6132848 61.0816686,9.29208371 C61.0816686,11.9150743 62.061888,14.0915984 64.0223267,15.8216561 C65.9827654,17.5517137 68.5873482,18.4167425 71.8360752,18.4167425 Z M81.0781434,69.3976342 L81.0781434,22.1838035 L62.4259694,22.1838035 L62.4259694,69.3976342 L81.0781434,69.3976342 Z M112.669213,92 L143,22.1838035 L122.415394,22.1838035 L114.097532,46.1255687 L105.191539,22.1838035 L84.4388954,22.1838035 L104.183314,67.0536852 L92.2526439,92 L112.669213,92 Z" id="Diy" fill="#1C1B1B" fill-rule="nonzero"></path>
    </g>
</svg>