<?xml version="1.0" encoding="UTF-8"?>
<svg width="414px" height="92px" viewBox="0 0 414 92" version="1.1" xmlns="http://www.w3.org/2000/svg" xmlns:xlink="http://www.w3.org/1999/xlink">
    <title>logo-stackbit-dark</title>
    <defs>
        <path d="M49.2695273,1.37659023 L5.26766814,26.8532755 C1.74004739,28.8752751 -0.305623956,32.8207645 0.0372584567,36.9420428 L0.0372584567,36.9420428 L0.0372584567,53.9264998 C-0.261622096,58.1004301 1.86458095,62.0646024 5.46692185,64.0492361 L5.46692185,64.0492361 L49.4687812,88.6758495 C52.592083,90.4413835 56.3837148,90.4413835 59.5061863,88.6758495 L59.5061863,88.6758495 L102.677822,64.0492361 C106.225368,62.024689 108.292625,58.069009 107.966347,53.9264998 L107.966347,53.9264998 L107.966347,36.9420428 C108.27353,32.8394474 106.235331,28.92453 102.735938,26.8957367 L102.735938,26.8957367 L59.564302,1.41905137 C57.96114,0.473017121 56.1703474,0 54.380385,0 L54.380385,0 C52.6178198,0 50.8552549,0.458580335 49.2695273,1.37659023 L49.2695273,1.37659023 Z M52.7564671,64.5417855 L8.75460795,39.0650999 C8.20832071,38.7559828 7.75833943,38.295704 7.45696821,37.7369155 L7.45696821,37.7369155 C6.5686288,36.0953678 7.14978543,34.0292086 8.75460795,33.1205402 L8.75460795,33.1205402 L52.7564671,7.64385483 C53.7842843,7.03750972 55.0495454,7.03750972 56.0773622,7.64385483 L56.0773622,7.64385483 L99.2489978,33.1799856 C100.837216,34.1183769 101.381843,36.195576 100.465276,37.8209887 L100.465276,37.8209887 C99.5487087,39.446401 97.5171512,40.0034912 95.9281028,39.0650999 L95.9281028,39.0650999 L54.4003104,14.5310521 L17.1564724,36.0928201 L56.0275489,58.5972254 C57.6323715,59.5211799 58.2010745,61.6009267 57.2977912,63.2416251 L57.2977912,63.2416251 C56.6850862,64.3558055 55.5543213,64.9816828 54.3895174,64.9816828 L54.3895174,64.9816828 C53.8357582,64.9816828 53.2736966,64.8390134 52.7564671,64.5417855 L52.7564671,64.5417855 Z M52.8228852,82.3754649 L8.82102583,57.7480027 C8.69483184,57.6877079 8.5711285,57.6189207 8.45406694,57.5424907 L8.45406694,57.5424907 C6.9048694,56.53786 6.44492543,54.4385812 7.42708016,52.8539314 L7.42708016,52.8539314 C8.40757442,51.2701308 10.4607178,50.798812 12.0090851,51.8034427 L12.0090851,51.8034427 L54.4003104,75.5222368 L95.969614,51.8034427 C97.5744366,50.8888297 99.6001826,51.4781905 100.494334,53.1197382 L100.494334,53.1197382 C101.388485,54.7621351 100.812309,56.8333897 99.2074866,57.7480027 L99.2074866,57.7480027 L56.0358513,82.3754649 C55.5360565,82.6582563 54.9822973,82.7992272 54.4293681,82.7992272 L54.4293681,82.7992272 C53.8756088,82.7992272 53.3226799,82.6582563 52.8228852,82.3754649 L52.8228852,82.3754649 Z" id="path-1"></path>
    </defs>
    <g id="Page-1" stroke="none" stroke-width="1" fill="none" fill-rule="evenodd">
        <g id="logo-stackbit-light-tagline" transform="translate(-91.000000, -152.000000)">
            <g id="logo-stackbit-dark" transform="translate(91.000000, 152.000000)">
                <g id="Stackbit" transform="translate(123.000000, 4.000000)" fill-rule="nonzero">
                    <path d="M16.3721185,28.8549704 C13.9237485,28.2733218 11.5999362,27.2604234 9.51061716,25.8631734 C5.93743754,23.4406266 3.7723008,19.4386266 3.70514798,15.1358297 C3.44357694,11.5898766 4.63499786,8.08974376 7.00863324,5.43270468 C9.77652064,2.56111876 13.5625314,0.879782812 17.5581239,0.748251562 C24.1596788,0.748251562 27.847668,3.26028282 31.1511534,5.50278282 L32.6404294,6.52161094 L27.9126546,14.6075484 L26.2879898,13.5294234 C23.3744242,11.5618453 21.4952284,10.2950484 17.5472928,10.2950484 C16.9624134,10.2950484 14.6987137,10.7694234 13.5343705,12.0631734 C13.1444509,12.4728609 12.6949603,13.2167672 12.7599469,14.7584859 C12.8249335,17.2058297 14.4441828,18.5642672 18.5870783,19.6477828 C19.1286332,19.7825484 19.491475,19.9173141 19.8813946,20.0574704 C24.2138344,21.6207516 27.5823062,23.7230954 29.916408,26.3752828 C32.1925636,28.9352906 33.4619684,32.2289626 33.4906708,35.6476968 C33.4224348,39.1187204 32.1411158,42.4582126 29.867668,45.0915328 C27.295282,48.2008454 23.4567404,49.9953844 19.4102418,49.9808296 C16.7116735,50.0169468 14.0255609,49.6272046 11.4493839,48.827236 C7.26208096,47.4229782 3.52426864,44.9379 0.618284718,41.625361 L7.21983968,35.1027046 C10.2400917,38.659439 14.7344563,40.6388766 19.4102418,40.4717672 C23.1632176,40.4717672 24.3925474,36.8708296 24.3925474,35.6476968 C24.3925474,33.0655876 21.608955,30.6877828 16.8811802,28.989736 L16.6862204,28.9196578 L16.3721185,28.8549704 Z" id="Fill-2" fill="#272B34"></path>
                    <polygon id="Fill-4" fill="#272B34" points="72.5420906 1.41674297 72.5420906 10.9258055 59.983431 10.9258055 59.983431 49.0429148 50.917801 49.0429148 50.917801 10.9258055 38.2995706 10.9258055 38.2995706 1.41674297"></polygon>
                    <path d="M99.5333522,30.7148438 L94.8055774,20.0953126 L89.6932986,30.7148438 L99.5333522,30.7148438 Z M103.806221,40.2023438 L85.0305104,40.2023438 L80.7576418,49.0429688 L70.5980708,49.0429688 L93.706221,1.41679688 L96.3598402,1.41679688 L117.78917,49.0429688 L107.754157,49.0429688 L103.806221,40.2023438 Z" id="Fill-6" fill="#272B34"></path>
                    <path d="M151.457588,12.9634078 C142.65732,6.99598594 129.383808,12.5537203 129.383808,25.324111 C129.383808,38.7036422 143.431743,44.0727046 151.97748,37.2805172 L157.804612,44.2883296 C153.657384,47.9367046 148.321443,49.9630406 142.787293,49.991611 C129.838714,49.991611 119.289223,38.9192672 119.289223,25.3348922 C119.289223,11.7505172 129.838714,0.667392188 142.781336,0.667392188 C148.080992,0.695423438 153.206269,2.55087656 157.284719,5.91786094 L151.457588,12.9634078 Z" id="Fill-8" fill="#272B34"></path>
                    <polygon id="Fill-10" fill="#272B34" points="176.915924 27.227271 173.422894 30.9629742 173.422894 48.961732 164.357806 48.961732 164.357806 1.41695859 173.417479 1.41695859 173.417479 16.764068 186.685575 1.41156797 198.919302 1.41156797 183.063114 20.025396 199.309764 48.961732 188.478664 48.961732"></polygon>
                    <path d="M216.91539,20.2299704 C219.88257,20.1361734 222.221546,17.6807438 222.157642,14.7261422 C222.211798,11.8033453 219.874988,9.3899625 216.938136,9.33605626 C216.930554,9.33605626 216.922972,9.33605626 216.91539,9.33551718 L212.967454,9.33551718 L212.967454,20.2299704 L216.91539,20.2299704 Z M219.785632,40.8819938 C222.901738,40.8399468 225.394516,38.2923376 225.352816,35.1900328 L225.352816,35.1781734 C225.407514,32.0564626 222.921234,29.4759704 219.785632,29.3994234 L204.94161,29.3994234 L204.94161,1.41668906 L217.30531,1.41668906 C224.621176,1.41668906 230.573406,7.66442344 230.573406,15.3406734 C230.594526,18.1222359 229.783818,20.8466578 228.24472,23.167861 C231.677636,25.9672126 233.652688,30.162736 233.616944,34.579814 C233.616944,42.5956734 227.464338,48.9781734 219.893942,48.9781734 L216.644612,48.9781734 L216.644612,40.892236 L219.785632,40.8819938 Z" id="Fill-12" fill="#272B34"></path>
                    <polygon id="Fill-14" fill="#272B34" points="241.518124 48.9621094 250.578338 48.9621094 250.578338 1.41679688 241.518124 1.41679688"></polygon>
                    <polygon id="Fill-16" fill="#272B34" points="290.62611 1.41674297 290.62611 10.9258055 278.067992 10.9258055 278.067992 49.0429148 269.00182 49.0429148 269.00182 10.9258055 256.384132 10.9258055 256.384132 1.41674297"></polygon>
                    <polygon id="Fill-17" fill="#207BEA" points="204.936086 48.9782812 213.35185 48.9782812 213.35185 40.8923438 204.936086 40.8923438"></polygon>
                </g>
                <g id="monogram">
                    <mask id="mask-2" fill="white">
                        <use xlink:href="#path-1"></use>
                    </mask>
                    <g id="path-1"></g>
                    <polygon id="Fill-19" fill="#207BEA" fill-rule="nonzero" mask="url(#mask-2)" points="-2 92 110 92 110 -2 -2 -2"></polygon>
                </g>
                <path d="M127.3768,89 C127.586533,89 127.753367,88.9332667 127.8773,88.7998 C128.001233,88.6663333 128.0632,88.5042667 128.0632,88.3136 L128.0632,88.3136 L128.0632,76.0156 L132.0386,83.566 C132.286467,83.9854667 132.6106,84.1952 133.011,84.1952 L133.011,84.1952 L134.2122,84.1952 C134.631667,84.1952 134.946267,83.9854667 135.156,83.566 L135.156,83.566 L139.1314,76.0156 L139.1314,88.3136 C139.1314,88.5042667 139.198133,88.6663333 139.3316,88.7998 C139.465067,88.9332667 139.627133,89 139.8178,89 L139.8178,89 L142.2774,89 C142.487133,89 142.658733,88.9380333 142.7922,88.8141 C142.925667,88.6901667 142.9924,88.5233333 142.9924,88.3136 L142.9924,88.3136 L142.9924,69.695 C142.9924,69.4852667 142.925667,69.3136667 142.7922,69.1802 C142.658733,69.0467333 142.487133,68.98 142.2774,68.98 L142.2774,68.98 L139.9894,68.98 C139.627133,68.98 139.341133,69.1611333 139.1314,69.5234 L139.1314,69.5234 L133.6116,79.7622 L128.0918,69.5234 C127.882067,69.1611333 127.596067,68.98 127.2338,68.98 L127.2338,68.98 L124.9172,68.98 C124.707467,68.98 124.540633,69.0467333 124.4167,69.1802 C124.292767,69.3136667 124.2308,69.4852667 124.2308,69.695 L124.2308,69.695 L124.2308,88.3136 C124.2308,88.5042667 124.297533,88.6663333 124.431,88.7998 C124.564467,88.9332667 124.726533,89 124.9172,89 L124.9172,89 L127.3768,89 Z M151.4294,89.286 C152.5734,89.286 153.526733,89.0905667 154.2894,88.6997 C155.052067,88.3088333 155.643133,87.8083333 156.0626,87.1982 L156.0626,87.1982 L156.0626,88.3136 C156.0626,88.5042667 156.129333,88.6663333 156.2628,88.7998 C156.396267,88.9332667 156.558333,89 156.749,89 L156.749,89 L159.1228,89 C159.332533,89 159.499367,88.9332667 159.6233,88.7998 C159.747233,88.6663333 159.8092,88.5042667 159.8092,88.3136 L159.8092,88.3136 L159.8092,79.3332 C159.8092,77.6934667 159.2944,76.3683333 158.2648,75.3578 C157.2352,74.3472667 155.595467,73.842 153.3456,73.842 C151.9728,73.842 150.819267,74.0660333 149.885,74.5141 C148.950733,74.9621667 148.259567,75.4865 147.8115,76.0871 C147.363433,76.6877 147.129867,77.2263333 147.1108,77.703 C147.1108,77.8936667 147.172767,78.0462 147.2967,78.1606 C147.420633,78.275 147.5684,78.3322 147.74,78.3322 L147.74,78.3322 L149.9708,78.3322 C150.180533,78.3322 150.323533,78.2178 150.3998,77.989 C150.450644,77.9381556 150.537504,77.8512963 150.660378,77.7284222 L150.8717,77.5171 C151.110033,77.2787667 151.419867,77.0452 151.8012,76.8164 C152.182533,76.5876 152.6878,76.4732 153.317,76.4732 C154.2322,76.4732 154.899533,76.6829333 155.319,77.1024 C155.738467,77.5218667 155.9482,78.1415333 155.9482,78.9614 L155.9482,78.9614 L155.9482,79.562 L152.03,80.134 C150.1996,80.42 148.760067,80.9634 147.7114,81.7642 C146.662733,82.565 146.1384,83.6136667 146.1384,84.9102 C146.1384,85.711 146.371967,86.4450667 146.8391,87.1124 C147.306233,87.7797333 147.944967,88.3088333 148.7553,88.6997 C149.565633,89.0905667 150.457,89.286 151.4294,89.286 Z M152.4018,86.5404 C151.696333,86.5404 151.090967,86.3735667 150.5857,86.0399 C150.080433,85.7062333 149.8278,85.2343333 149.8278,84.6242 C149.8278,83.4992667 150.924133,82.7652 153.1168,82.422 L153.1168,82.422 L155.9768,81.9644 L155.9768,82.5364 C155.9768,83.8329333 155.643133,84.8244 154.9758,85.5108 C154.308467,86.1972 153.450467,86.5404 152.4018,86.5404 Z M166.5588,89 C166.749467,89 166.911533,88.9332667 167.045,88.7998 C167.178467,88.6663333 167.2452,88.5042667 167.2452,88.3136 L167.2452,88.3136 L167.2452,82.7652 L172.6506,88.5138 C172.841267,88.7044667 172.998567,88.8331667 173.1225,88.8999 C173.246433,88.9666333 173.441867,89 173.7088,89 L173.7088,89 L176.483,89 C176.6546,89 176.7976,88.9428 176.912,88.8284 C177.0264,88.714 177.0836,88.5614667 177.0836,88.3708 C177.0836,88.2182667 176.9978,88.0562 176.8262,87.8846 L176.8262,87.8846 L170.2768,80.7918 L176.1112,75.272 C176.301867,75.1004 176.3972,74.9288 176.3972,74.7572 C176.3972,74.5665333 176.34,74.414 176.2256,74.2996 C176.1112,74.1852 175.958667,74.128 175.768,74.128 L175.768,74.128 L173.051,74.128 C172.8794,74.128 172.7364,74.1470667 172.622,74.1852 C172.5076,74.2233333 172.388433,74.2948333 172.2645,74.3997 C172.140567,74.5045667 172.05,74.5760667 171.9928,74.6142 L171.9928,74.6142 L167.2452,79.1616 L167.2452,69.3804 C167.2452,69.1897333 167.178467,69.0276667 167.045,68.8942 C166.911533,68.7607333 166.749467,68.694 166.5588,68.694 L166.5588,68.694 L164.185,68.694 C163.994333,68.694 163.832267,68.7559667 163.6988,68.8799 C163.565333,69.0038333 163.4986,69.1706667 163.4986,69.3804 L163.4986,69.3804 L163.4986,88.3136 C163.4986,88.5042667 163.565333,88.6663333 163.6988,88.7998 C163.832267,88.9332667 163.994333,89 164.185,89 L164.185,89 L166.5588,89 Z M185.0058,89.286 C186.340467,89.286 187.513067,89.0572 188.5236,88.5996 C189.534133,88.142 190.3111,87.6033667 190.8545,86.9837 C191.3979,86.3640333 191.6696,85.8254 191.6696,85.3678 C191.6696,85.1962 191.607633,85.0627333 191.4837,84.9674 C191.359767,84.8720667 191.212,84.8244 191.0404,84.8244 L191.0404,84.8244 L188.5236,84.8244 C188.2948,84.8244 188.132733,84.8482333 188.0374,84.8959 C187.942067,84.9435667 187.8086,85.0722667 187.637,85.282 C186.9506,86.1590667 186.064,86.5976 184.9772,86.5976 C184.023867,86.5976 183.2755,86.2496333 182.7321,85.5537 C182.1887,84.8577667 181.897933,83.9759333 181.8598,82.9082 L181.8598,82.9082 L181.8598,82.6794 L191.355,82.6794 C191.564733,82.6794 191.736333,82.6126667 191.8698,82.4792 C192.003267,82.3457333 192.07,82.1836667 192.07,81.993 L192.07,81.993 L192.07,81.3924 C192.07,79.1044 191.4551,77.274 190.2253,75.9012 C188.9955,74.5284 187.246133,73.842 184.9772,73.842 C182.765467,73.842 181.035167,74.5284 179.7863,75.9012 C178.537433,77.274 177.913,79.1520667 177.913,81.5354 L177.913,81.5354 L177.9416,82.2504 C178.017867,84.5002667 178.680433,86.2353333 179.9293,87.4556 C181.178167,88.6758667 182.870333,89.286 185.0058,89.286 Z M188.1232,80.2484 L181.8598,80.2484 L181.8598,80.1912 C181.8598,79.0662667 182.136267,78.1653667 182.6892,77.4885 C183.242133,76.8116333 184.0048,76.4732 184.9772,76.4732 C185.9496,76.4732 186.717033,76.8116333 187.2795,77.4885 C187.841967,78.1653667 188.1232,79.0662667 188.1232,80.1912 L188.1232,80.1912 L188.1232,80.2484 Z M210.1452,89 C210.354933,89 210.521767,88.9332667 210.6457,88.7998 C210.769633,88.6663333 210.8316,88.5042667 210.8316,88.3136 L210.8316,88.3136 L210.8316,86.5118 C210.8316,86.3020667 210.769633,86.1352333 210.6457,86.0113 C210.521767,85.8873667 210.354933,85.8254 210.1452,85.8254 L210.1452,85.8254 L208.1432,85.8254 C207.494933,85.8254 207.0278,85.6156667 206.7418,85.1962 C206.4558,84.7767333 206.3128,84.1570667 206.3128,83.3372 L206.3128,83.3372 L206.3128,77.1882 L209.8878,77.1882 C210.078467,77.1882 210.240533,77.1214667 210.374,76.988 C210.507467,76.8545333 210.5742,76.6924667 210.5742,76.5018 L210.5742,76.5018 L210.5742,74.8144 C210.5742,74.6237333 210.507467,74.4616667 210.374,74.3282 C210.240533,74.1947333 210.078467,74.128 209.8878,74.128 L209.8878,74.128 L206.3128,74.128 L206.3128,69.3804 C206.3128,69.1706667 206.250833,69.0038333 206.1269,68.8799 C206.002967,68.7559667 205.836133,68.694 205.6264,68.694 L205.6264,68.694 L203.2526,68.694 C203.061933,68.694 202.899867,68.7559667 202.7664,68.8799 C202.632933,69.0038333 202.5662,69.1706667 202.5662,69.3804 L202.5662,69.3804 L202.5662,74.128 L200.3068,74.128 C200.116133,74.128 199.954067,74.1947333 199.8206,74.3282 C199.687133,74.4616667 199.6204,74.6237333 199.6204,74.8144 L199.6204,74.8144 L199.6204,76.5018 C199.6204,76.6924667 199.687133,76.8545333 199.8206,76.988 C199.954067,77.1214667 200.116133,77.1882 200.3068,77.1882 L200.3068,77.1882 L202.5662,77.1882 L202.5662,83.6518 C202.5662,85.4059333 203.004733,86.7358333 203.8818,87.6415 C204.758867,88.5471667 206.064933,89 207.8,89 L207.8,89 L210.1452,89 Z M216.6946,89 C216.904333,89 217.071167,88.9332667 217.1951,88.7998 C217.319033,88.6663333 217.381,88.5042667 217.381,88.3136 L217.381,88.3136 L217.381,80.4486 C217.381,79.3618 217.676533,78.5038 218.2676,77.8746 C218.858667,77.2454 219.6404,76.9308 220.6128,76.9308 C221.623333,76.9308 222.4003,77.2406333 222.9437,77.8603 C223.4871,78.4799667 223.7588,79.3427333 223.7588,80.4486 L223.7588,80.4486 L223.7588,88.3136 C223.7588,88.5042667 223.825533,88.6663333 223.959,88.7998 C224.092467,88.9332667 224.264067,89 224.4738,89 L224.4738,89 L227.0764,89 C227.286133,89 227.452967,88.9332667 227.5769,88.7998 C227.700833,88.6663333 227.7628,88.5042667 227.7628,88.3136 L227.7628,88.3136 L227.7628,80.277 C227.7628,78.2940667 227.238467,76.7258333 226.1898,75.5723 C225.141133,74.4187667 223.739733,73.842 221.9856,73.842 C220.059867,73.842 218.525,74.5284 217.381,75.9012 L217.381,75.9012 L217.381,69.3804 C217.381,69.1706667 217.319033,69.0038333 217.1951,68.8799 C217.071167,68.7559667 216.904333,68.694 216.6946,68.694 L216.6946,68.694 L214.092,68.694 C213.901333,68.694 213.739267,68.7559667 213.6058,68.8799 C213.472333,69.0038333 213.4056,69.1706667 213.4056,69.3804 L213.4056,69.3804 L213.4056,88.3136 C213.4056,88.5042667 213.472333,88.6663333 213.6058,88.7998 C213.739267,88.9332667 213.901333,89 214.092,89 L214.092,89 L216.6946,89 Z M237.83,89.286 C239.164667,89.286 240.337267,89.0572 241.3478,88.5996 C242.358333,88.142 243.1353,87.6033667 243.6787,86.9837 C244.2221,86.3640333 244.4938,85.8254 244.4938,85.3678 C244.4938,85.1962 244.431833,85.0627333 244.3079,84.9674 C244.183967,84.8720667 244.0362,84.8244 243.8646,84.8244 L243.8646,84.8244 L241.3478,84.8244 C241.119,84.8244 240.956933,84.8482333 240.8616,84.8959 C240.766267,84.9435667 240.6328,85.0722667 240.4612,85.282 C239.7748,86.1590667 238.8882,86.5976 237.8014,86.5976 C236.848067,86.5976 236.0997,86.2496333 235.5563,85.5537 C235.0129,84.8577667 234.722133,83.9759333 234.684,82.9082 L234.684,82.9082 L234.684,82.6794 L244.1792,82.6794 C244.388933,82.6794 244.560533,82.6126667 244.694,82.4792 C244.827467,82.3457333 244.8942,82.1836667 244.8942,81.993 L244.8942,81.993 L244.8942,81.3924 C244.8942,79.1044 244.2793,77.274 243.0495,75.9012 C241.8197,74.5284 240.070333,73.842 237.8014,73.842 C235.589667,73.842 233.859367,74.5284 232.6105,75.9012 C231.361633,77.274 230.7372,79.1520667 230.7372,81.5354 L230.7372,81.5354 L230.7658,82.2504 C230.842067,84.5002667 231.504633,86.2353333 232.7535,87.4556 C234.002367,88.6758667 235.694533,89.286 237.83,89.286 Z M240.9474,80.2484 L234.684,80.2484 L234.684,80.1912 C234.684,79.0662667 234.960467,78.1653667 235.5134,77.4885 C236.066333,76.8116333 236.829,76.4732 237.8014,76.4732 C238.7738,76.4732 239.541233,76.8116333 240.1037,77.4885 C240.666167,78.1653667 240.9474,79.0662667 240.9474,80.1912 L240.9474,80.1912 L240.9474,80.2484 Z M259.6804,89 C260.1952,89 260.528867,88.7616667 260.6814,88.285 L260.6814,88.285 L263.8846,78.7898 L267.0878,88.285 C267.145,88.4756667 267.2594,88.6425 267.431,88.7855 C267.6026,88.9285 267.821867,89 268.0888,89 L268.0888,89 L270.0336,89 C270.3196,89 270.553167,88.9237333 270.7343,88.7712 C270.915433,88.6186667 271.025067,88.4089333 271.0632,88.142 L271.0632,88.142 L274.438,69.8094 C274.457067,69.7522 274.4666,69.6759333 274.4666,69.5806 C274.4666,69.409 274.4094,69.266 274.295,69.1516 C274.1806,69.0372 274.047133,68.98 273.8946,68.98 L273.8946,68.98 L271.3206,68.98 C270.843933,68.98 270.577,69.1706667 270.5198,69.552 L270.5198,69.552 L268.1746,82.422 L265.6006,74.128 C265.5434,73.9373333 265.438533,73.7705 265.286,73.6275 C265.133467,73.4845 264.933267,73.413 264.6854,73.413 L264.6854,73.413 L263.1124,73.413 C262.673867,73.413 262.359267,73.6513333 262.1686,74.128 L262.1686,74.128 L259.6232,82.422 L257.2494,69.552 C257.211267,69.3422667 257.135,69.1945 257.0206,69.1087 C256.9062,69.0229 256.725067,68.98 256.4772,68.98 L256.4772,68.98 L253.9032,68.98 C253.7316,68.98 253.5886,69.0372 253.4742,69.1516 C253.3598,69.266 253.3026,69.409 253.3026,69.5806 L253.3026,69.5806 L253.3312,69.8094 L256.706,88.142 C256.839467,88.714 257.182667,89 257.7356,89 L257.7356,89 L259.6804,89 Z M283.304,89.286 C284.638667,89.286 285.811267,89.0572 286.8218,88.5996 C287.832333,88.142 288.6093,87.6033667 289.1527,86.9837 C289.6961,86.3640333 289.9678,85.8254 289.9678,85.3678 C289.9678,85.1962 289.905833,85.0627333 289.7819,84.9674 C289.657967,84.8720667 289.5102,84.8244 289.3386,84.8244 L289.3386,84.8244 L286.8218,84.8244 C286.593,84.8244 286.430933,84.8482333 286.3356,84.8959 C286.240267,84.9435667 286.1068,85.0722667 285.9352,85.282 C285.2488,86.1590667 284.3622,86.5976 283.2754,86.5976 C282.322067,86.5976 281.5737,86.2496333 281.0303,85.5537 C280.4869,84.8577667 280.196133,83.9759333 280.158,82.9082 L280.158,82.9082 L280.158,82.6794 L289.6532,82.6794 C289.862933,82.6794 290.034533,82.6126667 290.168,82.4792 C290.301467,82.3457333 290.3682,82.1836667 290.3682,81.993 L290.3682,81.993 L290.3682,81.3924 C290.3682,79.1044 289.7533,77.274 288.5235,75.9012 C287.2937,74.5284 285.544333,73.842 283.2754,73.842 C281.063667,73.842 279.333367,74.5284 278.0845,75.9012 C276.835633,77.274 276.2112,79.1520667 276.2112,81.5354 L276.2112,81.5354 L276.2398,82.2504 C276.316067,84.5002667 276.978633,86.2353333 278.2275,87.4556 C279.476367,88.6758667 281.168533,89.286 283.304,89.286 Z M286.4214,80.2484 L280.158,80.2484 L280.158,80.1912 C280.158,79.0662667 280.434467,78.1653667 280.9874,77.4885 C281.540333,76.8116333 282.303,76.4732 283.2754,76.4732 C284.2478,76.4732 285.015233,76.8116333 285.5777,77.4885 C286.140167,78.1653667 286.4214,79.0662667 286.4214,80.1912 L286.4214,80.1912 L286.4214,80.2484 Z M301.6652,89.286 C303.590933,89.286 305.0686,88.6711 306.0982,87.4413 C307.1278,86.2115 307.680733,84.567 307.757,82.5078 C307.776067,82.2599333 307.7856,81.9453333 307.7856,81.564 C307.7856,81.1636 307.776067,80.849 307.757,80.6202 C307.6998,78.5991333 307.151633,76.9641667 306.1125,75.7153 C305.073367,74.4664333 303.590933,73.842 301.6652,73.842 C299.815733,73.842 298.357133,74.4712 297.2894,75.7296 L297.2894,75.7296 L297.2894,69.3804 C297.2894,69.1706667 297.227433,69.0038333 297.1035,68.8799 C296.979567,68.7559667 296.812733,68.694 296.603,68.694 L296.603,68.694 L294.1148,68.694 C293.924133,68.694 293.762067,68.7559667 293.6286,68.8799 C293.495133,69.0038333 293.4284,69.1706667 293.4284,69.3804 L293.4284,69.3804 L293.4284,88.3136 C293.4284,88.5042667 293.495133,88.6663333 293.6286,88.7998 C293.762067,88.9332667 293.924133,89 294.1148,89 L294.1148,89 L296.4028,89 C296.612533,89 296.784133,88.9332667 296.9176,88.7998 C297.051067,88.6663333 297.1178,88.5042667 297.1178,88.3136 L297.1178,88.3136 L297.1178,87.2554 C298.166467,88.6091333 299.682267,89.286 301.6652,89.286 Z M300.5784,86.1972 C299.4916,86.1972 298.681267,85.8444667 298.1474,85.139 C297.613533,84.4335333 297.327533,83.5755333 297.2894,82.565 C297.270333,82.3362 297.2608,81.9739333 297.2608,81.4782 C297.2608,80.9634 297.270333,80.5916 297.2894,80.3628 C297.327533,79.4094667 297.623067,78.5991333 298.176,77.9318 C298.728933,77.2644667 299.529733,76.9308 300.5784,76.9308 C302.618533,76.9308 303.705333,78.1892 303.8388,80.706 C303.857867,80.8966667 303.8674,81.1826667 303.8674,81.564 C303.8674,81.9453333 303.857867,82.2313333 303.8388,82.422 C303.705333,84.9388 302.618533,86.1972 300.5784,86.1972 Z M312.047,91.145 C312.485533,91.145 312.800133,90.8971333 312.9908,90.4014 L312.9908,90.4014 L314.8498,85.6538 C314.907,85.4822 314.9356,85.3487333 314.9356,85.2534 C314.9356,85.1199333 314.883167,85.0007667 314.7783,84.8959 C314.673433,84.7910333 314.554267,84.7386 314.4208,84.7386 L314.4208,84.7386 L311.761,84.7386 C311.2462,84.7386 310.9316,85.0436667 310.8172,85.6538 L310.8172,85.6538 L310.0736,90.5444 C310.054533,90.716 310.092667,90.859 310.188,90.9734 C310.283333,91.0878 310.407267,91.145 310.5598,91.145 L310.5598,91.145 L312.047,91.145 Z M334.4408,89 C336.595333,89 338.2732,88.4566 339.4744,87.3698 C340.6756,86.283 341.2762,84.853 341.2762,83.0798 C341.2762,82.0311333 340.999733,81.0968667 340.4468,80.277 C339.893867,79.4571333 339.217,78.8660667 338.4162,78.5038 C339.064467,78.1987333 339.6317,77.6982333 340.1179,77.0023 C340.6041,76.3063667 340.8472,75.4626667 340.8472,74.4712 C340.8472,72.7742667 340.294267,71.4348333 339.1884,70.4529 C338.082533,69.4709667 336.4142,68.98 334.1834,68.98 L334.1834,68.98 L325.8894,68.98 C325.679667,68.98 325.512833,69.0467333 325.3889,69.1802 C325.264967,69.3136667 325.203,69.4852667 325.203,69.695 L325.203,69.695 L325.203,88.3136 C325.203,88.5042667 325.269733,88.6663333 325.4032,88.7998 C325.536667,88.9332667 325.698733,89 325.8894,89 L325.8894,89 L334.4408,89 Z M333.6686,77.1882 L329.2356,77.1882 L329.2356,72.0402 L333.6686,72.0402 C334.660067,72.0402 335.4132,72.2594667 335.928,72.698 C336.4428,73.1365333 336.7002,73.7562 336.7002,74.557 C336.7002,75.3578 336.438033,75.9965333 335.9137,76.4732 C335.389367,76.9498667 334.641,77.1882 333.6686,77.1882 L333.6686,77.1882 Z M333.9546,85.9398 L329.2356,85.9398 L329.2356,80.1626 L333.9546,80.1626 C334.927,80.1626 335.694433,80.4343 336.2569,80.9777 C336.819367,81.5211 337.1006,82.2122667 337.1006,83.0512 C337.1006,83.8901333 336.824133,84.5813 336.2712,85.1247 C335.718267,85.6681 334.946067,85.9398 333.9546,85.9398 L333.9546,85.9398 Z M350.943,89.286 C352.277667,89.286 353.450267,89.0572 354.4608,88.5996 C355.471333,88.142 356.2483,87.6033667 356.7917,86.9837 C357.3351,86.3640333 357.6068,85.8254 357.6068,85.3678 C357.6068,85.1962 357.544833,85.0627333 357.4209,84.9674 C357.296967,84.8720667 357.1492,84.8244 356.9776,84.8244 L356.9776,84.8244 L354.4608,84.8244 C354.232,84.8244 354.069933,84.8482333 353.9746,84.8959 C353.879267,84.9435667 353.7458,85.0722667 353.5742,85.282 C352.8878,86.1590667 352.0012,86.5976 350.9144,86.5976 C349.961067,86.5976 349.2127,86.2496333 348.6693,85.5537 C348.1259,84.8577667 347.835133,83.9759333 347.797,82.9082 L347.797,82.9082 L347.797,82.6794 L357.2922,82.6794 C357.501933,82.6794 357.673533,82.6126667 357.807,82.4792 C357.940467,82.3457333 358.0072,82.1836667 358.0072,81.993 L358.0072,81.993 L358.0072,81.3924 C358.0072,79.1044 357.3923,77.274 356.1625,75.9012 C354.9327,74.5284 353.183333,73.842 350.9144,73.842 C348.702667,73.842 346.972367,74.5284 345.7235,75.9012 C344.474633,77.274 343.8502,79.1520667 343.8502,81.5354 L343.8502,81.5354 L343.8788,82.2504 C343.955067,84.5002667 344.617633,86.2353333 345.8665,87.4556 C347.115367,88.6758667 348.807533,89.286 350.943,89.286 Z M354.0604,80.2484 L347.797,80.2484 L347.797,80.1912 C347.797,79.0662667 348.073467,78.1653667 348.6264,77.4885 C349.179333,76.8116333 349.942,76.4732 350.9144,76.4732 C351.8868,76.4732 352.654233,76.8116333 353.2167,77.4885 C353.779167,78.1653667 354.0604,79.0662667 354.0604,80.1912 L354.0604,80.1912 L354.0604,80.2484 Z M370.0764,89 C370.286133,89 370.452967,88.9332667 370.5769,88.7998 C370.700833,88.6663333 370.7628,88.5042667 370.7628,88.3136 L370.7628,88.3136 L370.7628,86.5118 C370.7628,86.3020667 370.700833,86.1352333 370.5769,86.0113 C370.452967,85.8873667 370.286133,85.8254 370.0764,85.8254 L370.0764,85.8254 L368.0744,85.8254 C367.426133,85.8254 366.959,85.6156667 366.673,85.1962 C366.387,84.7767333 366.244,84.1570667 366.244,83.3372 L366.244,83.3372 L366.244,77.1882 L369.819,77.1882 C370.009667,77.1882 370.171733,77.1214667 370.3052,76.988 C370.438667,76.8545333 370.5054,76.6924667 370.5054,76.5018 L370.5054,76.5018 L370.5054,74.8144 C370.5054,74.6237333 370.438667,74.4616667 370.3052,74.3282 C370.171733,74.1947333 370.009667,74.128 369.819,74.128 L369.819,74.128 L366.244,74.128 L366.244,69.3804 C366.244,69.1706667 366.182033,69.0038333 366.0581,68.8799 C365.934167,68.7559667 365.767333,68.694 365.5576,68.694 L365.5576,68.694 L363.1838,68.694 C362.993133,68.694 362.831067,68.7559667 362.6976,68.8799 C362.564133,69.0038333 362.4974,69.1706667 362.4974,69.3804 L362.4974,69.3804 L362.4974,74.128 L360.238,74.128 C360.047333,74.128 359.885267,74.1947333 359.7518,74.3282 C359.618333,74.4616667 359.5516,74.6237333 359.5516,74.8144 L359.5516,74.8144 L359.5516,76.5018 C359.5516,76.6924667 359.618333,76.8545333 359.7518,76.988 C359.885267,77.1214667 360.047333,77.1882 360.238,77.1882 L360.238,77.1882 L362.4974,77.1882 L362.4974,83.6518 C362.4974,85.4059333 362.935933,86.7358333 363.813,87.6415 C364.690067,88.5471667 365.996133,89 367.7312,89 L367.7312,89 L370.0764,89 Z M382.403,89 C382.612733,89 382.779567,88.9332667 382.9035,88.7998 C383.027433,88.6663333 383.0894,88.5042667 383.0894,88.3136 L383.0894,88.3136 L383.0894,86.5118 C383.0894,86.3020667 383.027433,86.1352333 382.9035,86.0113 C382.779567,85.8873667 382.612733,85.8254 382.403,85.8254 L382.403,85.8254 L380.401,85.8254 C379.752733,85.8254 379.2856,85.6156667 378.9996,85.1962 C378.7136,84.7767333 378.5706,84.1570667 378.5706,83.3372 L378.5706,83.3372 L378.5706,77.1882 L382.1456,77.1882 C382.336267,77.1882 382.498333,77.1214667 382.6318,76.988 C382.765267,76.8545333 382.832,76.6924667 382.832,76.5018 L382.832,76.5018 L382.832,74.8144 C382.832,74.6237333 382.765267,74.4616667 382.6318,74.3282 C382.498333,74.1947333 382.336267,74.128 382.1456,74.128 L382.1456,74.128 L378.5706,74.128 L378.5706,69.3804 C378.5706,69.1706667 378.508633,69.0038333 378.3847,68.8799 C378.260767,68.7559667 378.093933,68.694 377.8842,68.694 L377.8842,68.694 L375.5104,68.694 C375.319733,68.694 375.157667,68.7559667 375.0242,68.8799 C374.890733,69.0038333 374.824,69.1706667 374.824,69.3804 L374.824,69.3804 L374.824,74.128 L372.5646,74.128 C372.373933,74.128 372.211867,74.1947333 372.0784,74.3282 C371.944933,74.4616667 371.8782,74.6237333 371.8782,74.8144 L371.8782,74.8144 L371.8782,76.5018 C371.8782,76.6924667 371.944933,76.8545333 372.0784,76.988 C372.211867,77.1214667 372.373933,77.1882 372.5646,77.1882 L372.5646,77.1882 L374.824,77.1882 L374.824,83.6518 C374.824,85.4059333 375.262533,86.7358333 376.1396,87.6415 C377.016667,88.5471667 378.322733,89 380.0578,89 L380.0578,89 L382.403,89 Z M392.0698,89.286 C393.404467,89.286 394.577067,89.0572 395.5876,88.5996 C396.598133,88.142 397.3751,87.6033667 397.9185,86.9837 C398.4619,86.3640333 398.7336,85.8254 398.7336,85.3678 C398.7336,85.1962 398.671633,85.0627333 398.5477,84.9674 C398.423767,84.8720667 398.276,84.8244 398.1044,84.8244 L398.1044,84.8244 L395.5876,84.8244 C395.3588,84.8244 395.196733,84.8482333 395.1014,84.8959 C395.006067,84.9435667 394.8726,85.0722667 394.701,85.282 C394.0146,86.1590667 393.128,86.5976 392.0412,86.5976 C391.087867,86.5976 390.3395,86.2496333 389.7961,85.5537 C389.2527,84.8577667 388.961933,83.9759333 388.9238,82.9082 L388.9238,82.9082 L388.9238,82.6794 L398.419,82.6794 C398.628733,82.6794 398.800333,82.6126667 398.9338,82.4792 C399.067267,82.3457333 399.134,82.1836667 399.134,81.993 L399.134,81.993 L399.134,81.3924 C399.134,79.1044 398.5191,77.274 397.2893,75.9012 C396.0595,74.5284 394.310133,73.842 392.0412,73.842 C389.829467,73.842 388.099167,74.5284 386.8503,75.9012 C385.601433,77.274 384.977,79.1520667 384.977,81.5354 L384.977,81.5354 L385.0056,82.2504 C385.081867,84.5002667 385.744433,86.2353333 386.9933,87.4556 C388.242167,88.6758667 389.934333,89.286 392.0698,89.286 Z M395.1872,80.2484 L388.9238,80.2484 L388.9238,80.1912 C388.9238,79.0662667 389.200267,78.1653667 389.7532,77.4885 C390.306133,76.8116333 391.0688,76.4732 392.0412,76.4732 C393.0136,76.4732 393.781033,76.8116333 394.3435,77.4885 C394.905967,78.1653667 395.1872,79.0662667 395.1872,80.1912 L395.1872,80.1912 L395.1872,80.2484 Z M405.3974,89 C405.588067,89 405.750133,88.9332667 405.8836,88.7998 C406.017067,88.6663333 406.0838,88.5042667 406.0838,88.3136 L406.0838,88.3136 L406.0838,80.4772 C406.0838,79.5810667 406.3412,78.8756 406.856,78.3608 C407.3708,77.846 408.076267,77.5886 408.9724,77.5886 L408.9724,77.5886 L411.2318,77.5886 C411.441533,77.5886 411.608367,77.5218667 411.7323,77.3884 C411.856233,77.2549333 411.9182,77.0928667 411.9182,76.9022 L411.9182,76.9022 L411.9182,74.8144 C411.9182,74.6046667 411.856233,74.4378333 411.7323,74.3139 C411.608367,74.1899667 411.441533,74.128 411.2318,74.128 L411.2318,74.128 L410.0306,74.128 C408.238333,74.128 406.865533,74.7572 405.9122,76.0156 L405.9122,76.0156 L405.9122,74.843 C405.9122,74.6332667 405.845467,74.4616667 405.712,74.3282 C405.578533,74.1947333 405.406933,74.128 405.1972,74.128 L405.1972,74.128 L402.852,74.128 C402.661333,74.128 402.499267,74.1947333 402.3658,74.3282 C402.232333,74.4616667 402.1656,74.6332667 402.1656,74.843 L402.1656,74.843 L402.1656,88.3136 C402.1656,88.5042667 402.232333,88.6663333 402.3658,88.7998 C402.499267,88.9332667 402.661333,89 402.852,89 L402.852,89 L405.3974,89 Z" id="MaketheWeb,Better" fill="#7D8085" fill-rule="nonzero"></path>
            </g>
        </g>
    </g>
</svg>