<?xml version="1.0" encoding="UTF-8"?>
<svg width="96px" height="96px" viewBox="0 0 96 96" version="1.1" xmlns="http://www.w3.org/2000/svg" xmlns:xlink="http://www.w3.org/1999/xlink">
    <title>icon</title>
    <g id="Page-1" stroke="none" stroke-width="1" fill="none" fill-rule="evenodd">
        <g id="icon">
            <circle id="Oval" fill="#7975F4" cx="48" cy="48" r="48"></circle>
            <g id="mouse" transform="translate(22.000000, 22.000000)" fill="#FFFFFF" fill-rule="nonzero">
                <path d="M25.6,51.2526 C19.0571,51.2526 13.734,45.9296 13.734,39.3866 L13.734,25.7051 C13.734,19.1622 19.057,13.8392 25.6,13.8392 C32.143,13.8392 37.466,19.1622 37.466,25.7051 L37.466,39.3865 C37.466,45.9295 32.1429,51.2526 25.6,51.2526 L25.6,51.2526 Z M25.6,16.8392 C20.7113,16.8392 16.734,20.8164 16.734,25.7051 L16.734,39.3865 C16.734,44.2753 20.7112,48.2525 25.6,48.2525 C30.4888,48.2525 34.466,44.2753 34.466,39.3865 L34.466,25.7051 C34.466,20.8165 30.4887,16.8392 25.6,16.8392 Z" id="Shape"></path>
                <path d="M25.6,51.2526 C19.0571,51.2526 13.734,45.9296 13.734,39.3866 L13.734,25.7051 C13.734,19.1622 19.057,13.8392 25.6,13.8392 C32.143,13.8392 37.466,19.1622 37.466,25.7051 L37.466,39.3865 C37.466,45.9295 32.1429,51.2526 25.6,51.2526 L25.6,51.2526 Z M25.6,16.8392 C20.7113,16.8392 16.734,20.8164 16.734,25.7051 L16.734,39.3865 C16.734,44.2753 20.7112,48.2525 25.6,48.2525 C30.4888,48.2525 34.466,44.2753 34.466,39.3865 L34.466,25.7051 C34.466,20.8165 30.4887,16.8392 25.6,16.8392 Z" id="Shape"></path>
                <polygon id="Path" points="24.1 22.4021 27.1 22.4021 27.1 26.4053 24.1 26.4053"></polygon>
                <polygon id="Path" points="0 24.2051 7.0278 24.2051 7.0278 27.2051 0 27.2051"></polygon>
                <polygon id="Path" points="44.2773 24.2052 51.3052 24.2052 51.3052 27.2052 44.2773 27.2052"></polygon>
                <polygon id="Path" transform="translate(6.479587, 36.773642) rotate(-30.000728) translate(-6.479587, -36.773642) " points="2.96571401 35.273675 9.99345939 35.273675 9.99345939 38.273609 2.96571401 38.273609"></polygon>
                <polygon id="Path" transform="translate(44.824217, 14.635764) rotate(-30.000728) translate(-44.824217, -14.635764) " points="41.3103438 13.1357974 48.3380892 13.1357974 48.3380892 16.1357314 41.3103438 16.1357314"></polygon>
                <polygon id="Path" transform="translate(36.721607, 6.533391) rotate(-59.999272) translate(-36.721607, -6.533391) " points="33.2077339 5.0334243 40.2354793 5.0334243 40.2354793 8.0333583 33.2077339 8.0333583"></polygon>
                <polygon id="Path" points="24.1526 0.0526 27.1526 0.0526 27.1526 7.0804 24.1526 7.0804"></polygon>
                <polygon id="Path" transform="translate(14.582888, 6.532395) rotate(-30.000728) translate(-14.582888, -6.532395) " points="13.0829208 3.01857231 16.0828548 3.01857231 16.0828548 10.0462177 13.0829208 10.0462177"></polygon>
                <polygon id="Path" transform="translate(44.824160, 36.775352) rotate(-59.999272) translate(-44.824160, -36.775352) " points="43.3241933 33.2614791 46.3241273 33.2614791 46.3241273 40.2892245 43.3241933 40.2892245"></polygon>
                <polygon id="Path" transform="translate(6.479646, 14.635845) rotate(-59.999272) translate(-6.479646, -14.635845) " points="4.9796791 11.1219723 7.9796131 11.1219723 7.9796131 18.1497177 4.9796791 18.1497177"></polygon>
            </g>
        </g>
    </g>
</svg>