<?xml version="1.0" encoding="UTF-8"?>
<svg width="96px" height="96px" viewBox="0 0 96 96" version="1.1" xmlns="http://www.w3.org/2000/svg" xmlns:xlink="http://www.w3.org/1999/xlink">
    <title>icon</title>
    <g id="Page-1" stroke="none" stroke-width="1" fill="none" fill-rule="evenodd">
        <g id="icon">
            <circle id="Oval" fill="#34D789" cx="48" cy="48" r="48"></circle>
            <g id="social-network" transform="translate(22.000000, 25.000000)" fill="#FFFFFF" fill-rule="nonzero">
                <g id="Group">
                    <path d="M47.5294,0.0481 L3.6706,0.0481 C1.6466,0.0481 -4.26325641e-15,1.6982 -4.26325641e-15,3.7265 L-4.26325641e-15,42.5083 C-4.26325641e-15,44.1865 1.3601,45.5519 3.0317,45.5519 L48.1682,45.5519 C49.8399,45.5519 51.1999,44.1866 51.1999,42.5083 L51.1999,3.7265 C51.1999,1.6982 49.5534,0.0481 47.5294,0.0481 Z M2,3.7265 C2,2.8011 2.7494,2.0482 3.6706,2.0482 L47.5294,2.0482 C48.4506,2.0482 49.2,2.8011 49.2,3.7265 L49.2,9.6697 L2,9.6697 L2,3.7265 Z M49.2,42.5083 C49.2,43.0837 48.7372,43.5519 48.1683,43.5519 L3.0317,43.5519 C2.4627,43.5519 2,43.0837 2,42.5083 L2,11.6696 L49.2,11.6696 L49.2,42.5083 Z" id="Shape"></path>
                    <path d="M32.8973,4.8589 L31.5539,4.8589 C31.0017,4.8589 30.5539,5.3067 30.5539,5.8589 C30.5539,6.4111 31.0017,6.8589 31.5539,6.8589 L32.8973,6.8589 C33.4495,6.8589 33.8973,6.4111 33.8973,5.8589 C33.8973,5.3066 33.4495,4.8589 32.8973,4.8589 Z" id="Path"></path>
                    <path d="M39.1104,4.8589 L37.7671,4.8589 C37.2149,4.8589 36.7671,5.3067 36.7671,5.8589 C36.7671,6.4111 37.2149,6.8589 37.7671,6.8589 L39.1104,6.8589 C39.6627,6.8589 40.1104,6.4111 40.1104,5.8589 C40.1104,5.3066 39.6627,4.8589 39.1104,4.8589 Z" id="Path"></path>
                    <path d="M45.3236,4.8589 L43.9803,4.8589 C43.4281,4.8589 42.9803,5.3067 42.9803,5.8589 C42.9803,6.4111 43.4281,6.8589 43.9803,6.8589 L45.3236,6.8589 C45.8758,6.8589 46.3236,6.4111 46.3236,5.8589 C46.3236,5.3066 45.8759,4.8589 45.3236,4.8589 Z" id="Path"></path>
                    <path d="M16.8216,4.8589 L7.1267,4.8589 C6.5745,4.8589 6.1267,5.3067 6.1267,5.8589 C6.1267,6.4111 6.5745,6.8589 7.1267,6.8589 L16.8216,6.8589 C17.3738,6.8589 17.8216,6.4111 17.8216,5.8589 C17.8216,5.3066 17.3738,4.8589 16.8216,4.8589 Z" id="Path"></path>
                </g>
                <g id="Group" transform="translate(12.700000, 14.800000)">
                    <path d="M16.8989,12.8207 C17.6196,11.9343 18.052,10.8046 18.052,9.5758 C18.052,6.735 15.7409,4.4237 12.9,4.4237 C10.0591,4.4237 7.748,6.7349 7.748,9.5758 C7.748,10.8043 8.1802,11.9337 8.9005,12.82 C7.4929,13.5846 6.5404,15.0797 6.5404,16.7704 L6.5404,20.1978 C6.5404,20.75 6.9882,21.1978 7.5404,21.1978 L18.2595,21.1978 C18.8117,21.1978 19.2595,20.75 19.2595,20.1978 L19.2595,16.7704 C19.2595,15.083 18.3062,13.5865 16.8989,12.8207 Z M12.9,6.4237 C14.638,6.4237 16.052,7.8377 16.052,9.5758 C16.052,11.3138 14.638,12.7278 12.9,12.7278 C11.162,12.7278 9.748,11.3138 9.748,9.5758 C9.748,7.8377 11.162,6.4237 12.9,6.4237 L12.9,6.4237 Z M17.2596,19.1978 L8.5405,19.1978 L8.5405,16.7704 C8.5405,15.4806 9.5392,14.3962 10.8194,14.2888 C11.456,14.571 12.1601,14.7278 12.9001,14.7278 C13.6401,14.7278 14.3442,14.571 14.9808,14.2888 C16.2599,14.396 17.2597,15.4831 17.2597,16.7704 L17.2597,19.1978 L17.2596,19.1978 Z" id="Shape"></path>
                </g>
            </g>
        </g>
    </g>
</svg>